<!DOCTYPE svg PUBLIC "-//W3C//DTD SVG 20010904//EN" "http://www.w3.org/TR/2001/REC-SVG-20010904/DTD/svg10.dtd">
<svg version="1.0" xmlns="http://www.w3.org/2000/svg" width="631px" height="383px" viewBox="0 0 6310 3830" preserveAspectRatio="xMidYMid meet">
<g id="layer101" fill="#001b2c" stroke="none">
 <path d="M0 3520 l0 -310 50 0 50 0 0 260 0 260 205 0 c232 0 256 -6 281 -65 19 -46 19 -243 0 -288 -25 -62 -44 -67 -251 -67 -102 0 -185 -3 -185 -6 0 -4 12 -26 28 -50 l27 -44 205 0 c232 0 238 2 271 74 16 36 19 67 19 236 0 169 -3 200 -19 236 -34 75 -27 74 -373 74 l-308 0 0 -310z"/>
 <path d="M950 3520 l0 -310 55 0 55 0 0 125 0 125 208 -1 c133 0 220 -4 242 -12 32 -11 35 -15 38 -58 5 -72 1 -73 -240 -79 l-209 -5 30 -47 31 -48 215 0 215 0 32 29 c31 28 32 31 36 122 7 165 -25 199 -184 199 l-89 0 135 135 135 135 -75 0 -75 0 -135 -135 -135 -135 -87 0 -88 0 0 135 0 135 -55 0 -55 0 0 -310z"/>
 <path d="M2910 3683 l0 -146 47 -84 c26 -45 50 -83 55 -83 4 0 8 104 8 230 l0 230 -55 0 -55 0 0 -147z"/>
 <path d="M3640 3681 l0 -149 47 -81 c26 -44 51 -81 55 -81 5 0 8 81 8 180 l0 180 290 0 290 0 0 50 0 50 -345 0 -345 0 0 -149z"/>
 <path d="M4630 3750 c0 -77 2 -83 48 -165 26 -46 50 -85 55 -85 4 0 7 50 7 110 l0 110 295 0 295 0 0 55 0 55 -350 0 -350 0 0 -80z"/>
 <path d="M5610 3520 l0 -310 50 0 50 0 0 310 0 310 -50 0 -50 0 0 -310z"/>
 <path d="M6200 3690 l0 -140 -226 0 -226 0 31 -52 30 -53 195 -3 196 -2 0 -115 0 -115 55 0 55 0 0 310 0 310 -55 0 -55 0 0 -140z"/>
 <path d="M3773 3546 c3 -8 17 -33 32 -55 l25 -41 250 0 250 0 0 55 0 55 -281 0 c-239 0 -280 -2 -276 -14z"/>
 <path d="M4630 3378 l0 -168 350 0 350 0 0 50 0 50 -295 0 -295 0 0 26 c0 15 -18 59 -39 98 -73 131 -70 133 -71 -56z"/>
 <path d="M3640 3265 l0 -55 345 0 345 0 0 55 0 55 -345 0 -345 0 0 -55z"/>
 <path d="M2610 3260 l0 -50 350 0 350 0 0 50 0 50 -350 0 -350 0 0 -50z"/>
 <path d="M1390 2673 c0 -5 339 -588 753 -1298 827 -1416 777 -1340 892 -1366 85 -19 130 -3 339 116 102 58 191 108 199 111 9 3 19 -13 30 -49 37 -119 125 -187 239 -187 32 0 74 7 93 14 19 8 252 142 517 296 519 302 553 327 578 414 15 56 9 139 -14 187 -9 20 -196 218 -421 447 -223 227 -405 415 -405 419 0 3 92 205 205 449 113 243 205 444 205 448 0 3 -139 6 -310 6 l-310 0 -192 -159 -193 -159 -160 159 -160 159 -238 0 c-130 0 -237 -1 -237 -2 0 -2 16 -52 34 -112 l35 -110 -112 112 -112 112 -628 0 c-345 0 -627 -3 -627 -7z m1518 -968 c69 -21 108 -54 399 -341 247 -243 253 -250 269 -308 31 -113 0 -229 -83 -307 -41 -40 -267 -173 -283 -167 -8 3 -655 1093 -667 1126 -8 19 297 17 365 -3z"/>
 </g>
<g id="layer102" fill="#fefefe" stroke="none">
 <path d="M0 3520 l0 -310 50 0 50 0 0 260 0 260 205 0 c232 0 256 -6 281 -65 19 -46 19 -243 0 -288 -25 -62 -44 -67 -251 -67 -102 0 -185 -3 -185 -6 0 -4 12 -26 28 -50 l27 -44 205 0 c232 0 238 2 271 74 16 36 19 67 19 236 0 169 -3 200 -19 236 -34 75 -27 74 -373 74 l-308 0 0 -310z"/>
 <path d="M950 3520 l0 -310 55 0 55 0 0 125 0 125 208 -1 c133 0 220 -4 242 -12 32 -11 35 -15 38 -58 5 -72 1 -73 -240 -79 l-209 -5 30 -47 31 -48 215 0 215 0 32 29 c31 28 32 31 36 122 7 165 -25 199 -184 199 l-89 0 135 135 135 135 -75 0 -75 0 -135 -135 -135 -135 -87 0 -88 0 0 135 0 135 -55 0 -55 0 0 -310z"/>
 <path d="M2910 3683 l0 -146 47 -84 c26 -45 50 -83 55 -83 4 0 8 104 8 230 l0 230 -55 0 -55 0 0 -147z"/>
 <path d="M3640 3681 l0 -149 47 -81 c26 -44 51 -81 55 -81 5 0 8 81 8 180 l0 180 290 0 290 0 0 50 0 50 -345 0 -345 0 0 -149z"/>
 <path d="M4630 3750 c0 -77 2 -83 48 -165 26 -46 50 -85 55 -85 4 0 7 50 7 110 l0 110 295 0 295 0 0 55 0 55 -350 0 -350 0 0 -80z"/>
 <path d="M5610 3520 l0 -310 50 0 50 0 0 310 0 310 -50 0 -50 0 0 -310z"/>
 <path d="M6200 3690 l0 -140 -226 0 -226 0 31 -52 30 -53 195 -3 196 -2 0 -115 0 -115 55 0 55 0 0 310 0 310 -55 0 -55 0 0 -140z"/>
 <path d="M3773 3546 c3 -8 17 -33 32 -55 l25 -41 250 0 250 0 0 55 0 55 -281 0 c-239 0 -280 -2 -276 -14z"/>
 <path d="M4630 3378 l0 -168 350 0 350 0 0 50 0 50 -295 0 -295 0 0 26 c0 15 -18 59 -39 98 -73 131 -70 133 -71 -56z"/>
 <path d="M3640 3265 l0 -55 345 0 345 0 0 55 0 55 -345 0 -345 0 0 -55z"/>
 <path d="M2610 3260 l0 -50 350 0 350 0 0 50 0 50 -350 0 -350 0 0 -50z"/>
 <path d="M1390 2673 c0 -5 339 -588 753 -1298 827 -1416 777 -1340 892 -1366 85 -19 130 -3 339 116 102 58 191 108 199 111 9 3 19 -13 30 -49 37 -119 125 -187 239 -187 32 0 74 7 93 14 19 8 252 142 517 296 519 302 553 327 578 414 15 56 9 139 -14 187 -9 20 -196 218 -421 447 -223 227 -405 415 -405 419 0 3 92 205 205 449 113 243 205 444 205 448 0 3 -139 6 -310 6 l-310 0 -192 -159 -193 -159 -160 159 -160 159 -238 0 c-130 0 -237 -1 -237 -2 0 -2 16 -52 34 -112 l35 -110 -112 112 -112 112 -628 0 c-345 0 -627 -3 -627 -7z m2068 -892 c536 -517 854 -831 862 -851 30 -73 8 -158 -52 -203 -18 -13 -278 -163 -578 -332 -602 -341 -594 -338 -680 -293 -44 23 -55 40 -707 1158 -365 624 -690 1181 -722 1238 l-60 102 544 0 545 0 848 -819z m-41 647 c160 -160 173 -171 190 -157 10 9 104 86 210 172 l191 157 236 -2 235 -3 -194 -419 -194 -418 421 -429 c232 -235 428 -439 435 -451 17 -32 16 -123 -2 -158 -8 -16 -30 -40 -47 -53 -32 -23 -910 -538 -975 -571 -40 -20 -115 -21 -152 -1 -16 8 -40 28 -54 44 -25 30 -62 123 -55 141 2 5 147 91 323 190 358 202 393 229 420 324 19 64 14 119 -15 176 -21 41 -124 144 -862 854 l-537 518 -40 121 c-23 67 -41 125 -41 130 0 4 75 7 167 7 l168 0 172 -172z"/>
 <path d="M2402 1791 c9 -28 774 -1321 781 -1321 23 0 336 191 374 229 113 113 142 281 73 428 -25 54 -56 89 -207 236 -402 391 -415 401 -525 427 -56 12 -501 13 -496 1z m506 -86 c69 -21 108 -54 399 -341 247 -243 253 -250 269 -308 31 -113 0 -229 -83 -307 -41 -40 -267 -173 -283 -167 -8 3 -655 1093 -667 1126 -8 19 297 17 365 -3z"/>
 </g>

</svg>